<svg xmlns="http://www.w3.org/2000/svg" xmlns:xlink="http://www.w3.org/1999/xlink" width="1366" height="768" preserveAspectRatio="xMidYMid meet" version="1.2" viewBox="0 0 1024.5 576" zoomAndPan="magnify"><defs><clipPath id="fc2338a28b"><path d="M 794.695312 111.996094 L 879.402344 111.996094 L 879.402344 342.136719 L 794.695312 342.136719 Z M 794.695312 111.996094"/></clipPath></defs><g id="38d69d14c1"><g style="fill:#900;fill-opacity:1"><g><path style="stroke:none" d="M 119.90625 -119.046875 C 115.457031 -124.484375 110.046875 -128.707031 103.671875 -131.71875 C 97.296875 -134.726562 90.816406 -136.234375 84.234375 -136.234375 C 70.484375 -136.234375 59.09375 -130.785156 50.0625 -119.890625 C 41.039062 -109.003906 36.53125 -95.828125 36.53125 -80.359375 C 36.53125 -65.179688 41.113281 -52.289062 50.28125 -41.6875 C 59.445312 -31.082031 70.691406 -25.78125 84.015625 -25.78125 C 90.890625 -25.78125 97.476562 -27.390625 103.78125 -30.609375 C 110.082031 -33.835938 115.457031 -37.957031 119.90625 -42.96875 L 119.90625 -5.375 C 113.882812 -2.507812 107.898438 -0.179688 101.953125 1.609375 C 96.015625 3.398438 89.75 4.296875 83.15625 4.296875 C 68.832031 4.296875 55.6875 0.644531 43.71875 -6.65625 C 31.757812 -13.96875 22.128906 -24.210938 14.828125 -37.390625 C 7.523438 -50.566406 3.875 -64.675781 3.875 -79.71875 C 3.875 -95.476562 7.378906 -110.050781 14.390625 -123.4375 C 21.410156 -136.832031 31.046875 -147.328125 43.296875 -154.921875 C 55.546875 -162.515625 69.046875 -166.3125 83.796875 -166.3125 C 90.242188 -166.3125 96.507812 -165.488281 102.59375 -163.84375 C 108.6875 -162.195312 114.457031 -159.867188 119.90625 -156.859375 Z M 119.90625 -119.046875" transform="translate(34.236427, 356.59153)"/></g></g><g style="fill:#900;fill-opacity:1"><g><path style="stroke:none" d="M 85.734375 -166.3125 L 147.1875 0 L 113.453125 0 L 100.984375 -34.171875 L 44.6875 -34.171875 L 31.375 0 L -1.9375 0 L 61.234375 -166.3125 Z M 53.71875 -59.953125 L 92.1875 -59.953125 L 71.984375 -118.828125 L 71.546875 -118.828125 Z M 53.71875 -59.953125" transform="translate(163.371631, 356.59153)"/></g></g><g style="fill:#900;fill-opacity:1"><g><path style="stroke:none" d="M 52 -166.3125 L 91.96875 -59.515625 L 130.21875 -166.3125 L 152.984375 -166.3125 L 177.265625 0 L 145.46875 0 L 132.578125 -100.5625 L 132.140625 -100.5625 L 95.40625 2.15625 L 84.453125 2.15625 L 48.984375 -100.5625 L 48.5625 -100.5625 L 34.171875 0 L 2.359375 0 L 29.65625 -166.3125 Z M 52 -166.3125" transform="translate(308.621914, 356.59153)"/></g></g><g style="fill:#396;fill-opacity:1"><g><path style="stroke:none" d="M 55.65625 -162.015625 C 73.84375 -162.015625 87.554688 -157.820312 96.796875 -149.4375 C 106.035156 -141.0625 110.65625 -128.492188 110.65625 -111.734375 C 110.65625 -94.546875 106.144531 -81.722656 97.125 -73.265625 C 88.101562 -64.816406 75.710938 -60.59375 59.953125 -60.59375 L 43.1875 -60.59375 L 43.1875 0 L 11.609375 0 L 11.609375 -162.015625 Z M 43.1875 -86.8125 L 50.0625 -86.8125 C 59.945312 -86.8125 67.144531 -88.492188 71.65625 -91.859375 C 76.164062 -95.222656 78.421875 -101.921875 78.421875 -111.953125 C 78.421875 -120.828125 76.238281 -127.019531 71.875 -130.53125 C 67.507812 -134.039062 60.382812 -135.796875 50.5 -135.796875 L 43.1875 -135.796875 Z M 43.1875 -86.8125" transform="translate(488.257018, 356.59153)"/></g></g><g style="fill:#069;fill-opacity:1"><g><path style="stroke:none" d="M 114.09375 -164.171875 L 147.625 -51.5625 L 148.046875 -51.5625 L 179.84375 -162.015625 L 212.9375 -162.015625 L 158.140625 3.21875 L 134.9375 3.21875 L 102.703125 -102.703125 L 102.28125 -102.703125 L 71.765625 3.21875 L 48.5625 3.21875 L -3.015625 -162.015625 L 30.078125 -162.015625 L 62.75 -51.5625 L 63.171875 -51.5625 L 95.40625 -164.171875 Z M 114.09375 -164.171875" transform="translate(601.709456, 356.59153)"/></g></g><g style="fill:#069;fill-opacity:1"><g><path style="stroke:none" d="M 43.1875 -162.015625 L 43.1875 0 L 11.609375 0 L 11.609375 -162.015625 Z M 43.1875 -162.015625" transform="translate(811.634782, 356.59153)"/></g></g><g style="fill:#069;fill-opacity:1"><g><path style="stroke:none" d="M 122.484375 -162.015625 L 51.359375 -27.5 L 118.609375 -27.5 L 118.609375 0 L 1.078125 0 L 72.40625 -134.515625 L 12.03125 -134.515625 L 12.03125 -162.015625 Z M 122.484375 -162.015625" transform="translate(866.211042, 356.59153)"/></g></g><g clip-path="url(#fc2338a28b)" clip-rule="nonzero"><path style="stroke:none;fill-rule:nonzero;fill:#069;fill-opacity:1" d="M 879.207031 154.941406 C 874.328125 155.261719 868.988281 156.367188 863.832031 158.253906 C 839.4375 167.140625 839.667969 199.957031 839.53125 221.128906 C 839.023438 297.210938 837.503906 334.171875 837.136719 342.136719 L 836.769531 342.136719 C 836.402344 334.125 834.882812 297.210938 834.375 221.128906 C 834.238281 199.957031 834.46875 167.140625 810.074219 158.253906 C 804.917969 156.414062 799.578125 155.308594 794.699219 154.941406 C 808.371094 153.976562 825.90625 147.023438 831.84375 133.769531 C 834.742188 127.324219 836.585938 119.269531 836.953125 111.996094 C 837.367188 119.269531 839.207031 127.324219 842.109375 133.769531 C 848.046875 147.023438 865.535156 153.976562 879.207031 154.941406 Z M 879.207031 154.941406"/></g><g style="fill:#396;fill-opacity:1"><g><path style="stroke:none" d="M 43.1875 -162.015625 L 43.1875 0 L 11.609375 0 L 11.609375 -162.015625 Z M 43.1875 -162.015625" transform="translate(488.176546, 458.605678)"/></g></g><path style="fill:none;stroke-width:41;stroke-linecap:butt;stroke-linejoin:miter;stroke:#396;stroke-opacity:1;stroke-miterlimit:4" d="M -0.00192626 20.498099 L 484.958618 20.498099" transform="matrix(0.749634,0,0,0.749634,109.552225,386.079238)"/><path style="fill:none;stroke-width:41;stroke-linecap:butt;stroke-linejoin:miter;stroke:#396;stroke-opacity:1;stroke-miterlimit:4" d="M -0.000807978 20.498099 L 484.959737 20.498099" transform="matrix(0.749634,0,0,0.749634,557.371699,386.079238)"/><g style="fill:#900;fill-opacity:1"><g><path style="stroke:none" d="M 12.296875 -59.484375 L 42.8125 -18.984375 L 42.96875 -18.984375 L 42.96875 -57.953125 L 54.265625 -57.953125 L 54.265625 1.15625 L 46.109375 1.15625 L 15.609375 -39.359375 L 15.453125 -39.359375 L 15.453125 0 L 4.15625 0 L 4.15625 -59.484375 Z M 12.296875 -59.484375" transform="translate(766.529923, 506.745071)"/></g></g><g style="fill:#396;fill-opacity:1"><g><path style="stroke:none" d="M 15.671875 -57.953125 L 24.90625 -39.96875 L 33.359375 -57.953125 L 46.734375 -57.953125 L 30.671875 -30.671875 L 48.5 0 L 35.359375 0 L 23.671875 -21.21875 L 12.609375 0 L -0.609375 0 L 17.90625 -30.671875 L 2.3125 -57.953125 Z M 15.671875 -57.953125" transform="translate(824.874207, 506.745071)"/></g></g><g style="fill:#069;fill-opacity:1"><g><path style="stroke:none" d="M 34.65625 -57.953125 L 34.65625 -48.109375 L 22.984375 -48.109375 L 22.984375 0 L 11.6875 0 L 11.6875 -48.109375 L 0 -48.109375 L 0 -57.953125 Z M 34.65625 -57.953125" transform="translate(872.763955, 506.745071)"/></g></g></g></svg>