<svg xmlns="http://www.w3.org/2000/svg" width="500" height="500" viewBox="0 0 500 500"><style>@keyframes highlightEdge{0%{stroke:transparent;stroke-width:2}50%{stroke:#ff5733;stroke-width:4}}.edge1{animation:highlightEdge 2s infinite}.edge2{animation:highlightEdge 2s infinite .5s}.edge3{animation:highlightEdge 2s infinite 1s}.edge4{animation:highlightEdge 2s infinite 1.5s}.edge5{animation:highlightEdge 2s infinite 2s}.edge6{animation:highlightEdge 2s infinite 2.5s}.edge7{animation:highlightEdge 2s infinite 3s}.edge8{animation:highlightEdge 2s infinite 3.5s}</style><defs><linearGradient id="grad1" x1="0%" x2="100%" y1="0%" y2="100%"><stop style="stop-color:#ff5733;stop-opacity:1" offset="0%"/><stop style="stop-color:#ffc300;stop-opacity:1" offset="100%"/></linearGradient></defs><circle id="taskManager" cx="250" cy="250" r="40" fill="url(#grad1)" stroke="#333" stroke-width="2"/><circle cx="250" cy="50" r="30" fill="#3380FF" stroke="#333" stroke-width="2" class="jury"/><circle cx="400" cy="100" r="30" fill="#3380FF" stroke="#333" stroke-width="2" class="jury"/><circle cx="450" cy="250" r="30" fill="#3380FF" stroke="#333" stroke-width="2" class="jury"/><circle cx="400" cy="400" r="30" fill="#3380FF" stroke="#333" stroke-width="2" class="jury"/><circle cx="250" cy="450" r="30" fill="#3380FF" stroke="#333" stroke-width="2" class="jury"/><circle cx="100" cy="400" r="30" fill="#3380FF" stroke="#333" stroke-width="2" class="jury"/><circle cx="50" cy="250" r="30" fill="#3380FF" stroke="#333" stroke-width="2" class="jury"/><circle cx="100" cy="100" r="30" fill="#3380FF" stroke="#333" stroke-width="2" class="jury"/><line x1="250" x2="250" y1="220" y2="80" stroke="transparent" stroke-width="2" class="edge1"/><line x1="270" x2="380" y1="230" y2="120" stroke="transparent" stroke-width="2" class="edge2"/><line x1="280" x2="420" y1="250" y2="250" stroke="transparent" stroke-width="2" class="edge3"/><line x1="270" x2="380" y1="270" y2="380" stroke="transparent" stroke-width="2" class="edge4"/><line x1="250" x2="250" y1="280" y2="420" stroke="transparent" stroke-width="2" class="edge5"/><line x1="230" x2="120" y1="270" y2="380" stroke="transparent" stroke-width="2" class="edge6"/><line x1="220" x2="80" y1="250" y2="250" stroke="transparent" stroke-width="2" class="edge7"/><line x1="230" x2="120" y1="230" y2="120" stroke="transparent" stroke-width="2" class="edge8"/></svg>